<svg width="60" height="60" viewBox="0 0 60 60" fill="none" xmlns="http://www.w3.org/2000/svg">
<path d="M10.1499 15.375C9.92487 15.425 9.69987 15.55 9.49987 15.7C6.55643 19.8863 4.98416 24.8825 4.99987 30C4.99987 36.6304 7.63379 42.9893 12.3222 47.6777C14.6437 49.9991 17.3996 51.8406 20.4328 53.097C23.4659 54.3534 26.7168 55 29.9999 55C37.4999 55 44.1999 51.7 48.7499 46.5L42.4999 47.125C35.6249 47.875 28.6249 47.975 21.6499 47.4C19.8749 47.35 18.0999 46.9 16.4749 46.125C15.4192 45.6432 14.5108 44.889 13.843 43.94C13.1752 42.991 12.772 41.8814 12.6749 40.725C12.6499 40.325 12.7999 40 13.0749 39.675L18.5499 34L37.5749 14.25V14H27.0999C21.4249 14.1 15.7749 14.55 10.1499 15.375ZM50.4249 43.75C50.6499 43.675 50.8749 43.6 51.0749 43.475C53.6451 39.4512 55.0073 34.7746 54.9999 30C54.9999 26.717 54.3532 23.4661 53.0969 20.4329C51.8405 17.3998 49.999 14.6438 47.6775 12.3223C45.3561 10.0009 42.6001 8.15938 39.567 6.90301C36.5338 5.64664 33.2829 5 29.9999 5C23.0499 5 16.7499 7.825 12.2249 12.425H12.9249C20.6999 11.425 28.5749 11.175 36.3999 11.625C38.7499 11.6 41.1249 12.05 43.3249 12.925C44.4561 13.374 45.443 14.1238 46.1788 15.0932C46.9147 16.0626 47.3715 17.2147 47.4999 18.425C47.4999 18.825 47.3249 19.25 47.0499 19.55L24.2749 42.975L22.4999 44.875V45.15H32.8499C38.7499 45 44.5999 44.525 50.4249 43.75Z" fill="white"/>
</svg>
